# xmcd CD database file
#
# Track frame offsets:
#	150
#	12175
#	32400
#	49687
#	60750
#	73800
#	84350
#	93475
#	106012
#	118350
#	130575
#
# Disc length: 1895 seconds
#
# Revision: 2
# Processed by: cddbd v1.5.2PL0 Copyright (c) Steve Scherf et al.
# Submitted via: FreeDB 13.2
#
DISCID=8007650b
DTITLE=Arlo Guthrie - Arlo Guthrie
DYEAR=1974
DGENRE=Folk
TTITLE0=Won't Be Long
TTITLE1=Presidential Rag
TTITLE2=Deportees (Plane Wreck at Los Gatos)
TTITLE3=Children of Abraham
TTITLE4=Nostalgia Rag
TTITLE5=When the Cactus Is in Bloom
TTITLE6=Me and My Goose
TTITLE7=Bling-Blang
TTITLE8=Go Down, Moses
TTITLE9=Hard Times
TTITLE10=Last To Leave
EXTD=Rising Son Records RSR 1108
EXTT0=
EXTT1=
EXTT2=
EXTT3=
EXTT4=
EXTT5=
EXTT6=
EXTT7=
EXTT8=
EXTT9=
EXTT10=
PLAYORDER=
